<svg xmlns="http://www.w3.org/2000/svg" version="1.1" xmlns:xlink="http://www.w3.org/1999/xlink" xmlns:svgjs="http://svgjs.dev/svgjs" width="2000" height="298" viewBox="0 0 2000 298"><g transform="matrix(1,0,0,1,-0.1298973494644997,-2.378310909090942)"><svg viewBox="0 0 369 55" data-background-color="#0080ff" preserveAspectRatio="xMidYMid meet" height="298" width="2000" xmlns="http://www.w3.org/2000/svg" xmlns:xlink="http://www.w3.org/1999/xlink"><g id="tight-bounds" transform="matrix(1,0,0,1,0.023966060976192693,0.4389500000000055)"><svg viewBox="0 0 368.9520678780476 54.1221" height="54.1221" width="368.9520678780476"><g><svg viewBox="0 0 368.9520678780476 54.1221" height="54.1221" width="368.9520678780476"><g><svg viewBox="0 0 368.9520678780476 54.1221" height="54.1221" width="368.9520678780476"><g id="textblocktransform"><svg viewBox="0 0 368.9520678780476 54.1221" height="54.1221" width="368.9520678780476" id="textblock"><g><svg viewBox="0 0 368.9520678780476 54.1221" height="54.1221" width="368.9520678780476"><g><svg><g></g><g></g></svg></g><g><svg><g></g><g><svg></svg></g></svg></g><g id="text-0"><svg viewBox="0 0 368.9520678780476 54.1221" height="54.1221" width="368.9520678780476"><g><svg xmlns="http://www.w3.org/2000/svg" xmlns:xlink="http://www.w3.org/1999/xlink" version="1.1" x="0" y="0" viewBox="2.077491689784512 33.46423793077943 95.8431755190117 33.074135706610036" enable-background="new 0 0 100 100" xml:space="preserve" height="54.1221" width="156.83656787804762" class="icon-dxe-0" data-fill-palette-color="accent" id="dxe-0"><g fill="#ffffff" data-fill-palette-color="accent"><path fill="#ffffff" d="M78.533 55.664C77.913 55.589 76.372 51.852 74.769 48.748 73.483 46.256 72.086 44.084 72.06 43.743 71.966 42.552 72.609 42.472 71.562 41.914 70.514 41.355 58.777 35.971 56.968 35.249 49.752 32.37 35.601 33.746 32.951 34.132 30.32 34.515 22.615 36.399 21.222 37.204 19.404 38.256 13.224 40.941 11.326 41.857 9.524 42.727 2.775 44.885 2.548 47.078L2.58 47.082C2.587 47.08 2.547 47.204 2.603 47.383 2.636 47.473 2.693 47.576 2.802 47.667 2.909 47.758 3.054 47.838 3.229 47.905 3.582 48.033 4.044 48.11 4.578 48.152 5.114 48.189 5.723 48.19 6.388 48.163 6.721 48.147 7.067 48.129 7.426 48.098 7.784 48.074 8.155 48.038 8.535 47.998A86 86 0 0 0 10.927 47.703 89 89 0 0 0 13.483 47.33C14.358 47.197 15.235 47.04 16.115 46.875A108 108 0 0 0 21.256 45.753C22.073 45.557 22.86 45.354 23.609 45.167 24.357 44.979 25.064 44.799 25.72 44.643 26.049 44.566 26.365 44.495 26.669 44.436 26.822 44.409 26.972 44.385 27.118 44.365 27.194 44.361 27.267 44.355 27.341 44.35 27.423 44.343 27.484 44.356 27.555 44.358 27.841 44.383 28.099 44.467 28.313 44.585 28.528 44.704 28.701 44.848 28.841 44.99 29.121 45.276 29.292 45.538 29.41 45.713L29.586 45.984 29.533 46.02 29.348 45.755C29.225 45.586 29.046 45.334 28.766 45.067A2.2 2.2 0 0 0 28.252 44.702 1.8 1.8 0 0 0 27.546 44.515C27.481 44.516 27.403 44.506 27.343 44.515L27.139 44.536A9 9 0 0 0 26.706 44.62 23 23 0 0 0 25.775 44.858C25.128 45.037 24.428 45.242 23.686 45.456 22.945 45.671 22.161 45.889 21.347 46.11A110 110 0 0 1 16.216 47.372C15.338 47.566 14.451 47.748 13.586 47.917 12.715 48.093 11.854 48.233 11.017 48.357A34 34 0 0 1 7.456 48.666C7.089 48.677 6.735 48.676 6.394 48.671A14 14 0 0 1 4.535 48.52 8 8 0 0 1 3.768 48.352 3.6 3.6 0 0 1 3.139 48.108 1.7 1.7 0 0 1 2.689 47.782 0.75 0.75 0 0 1 2.495 47.41 0.5 0.5 0 0 1 2.486 47.26L2.488 47.22C1.34 47.828 2.747 50.514 4.886 50.958 8.208 51.648 14.003 51.662 17.662 52.493 21.721 53.416 26 53.611 28.24 53.61 29.452 53.808 29.608 55.233 30.889 55.221 31.377 55.217 31.076 53.964 31.158 53.608 31.695 53.608 37.754 53.129 40.065 52.989 40.07 52.905 40.078 52.811 40.086 52.704 40.113 52.359 40.155 51.911 40.159 51.462 40.165 51.016 40.125 50.569 40.006 50.26A1 1 0 0 0 39.801 49.917C39.734 49.846 39.681 49.819 39.683 49.816 39.682 49.819 39.739 49.833 39.823 49.892 39.907 49.948 40.019 50.051 40.116 50.203 40.315 50.503 40.46 50.964 40.554 51.422 40.651 51.882 40.709 52.346 40.756 52.685L40.795 52.955 40.872 52.952C40.96 54.276 44.836 59.416 46.207 59.687 47.07 59.857 45.195 53.592 44.821 52.564H44.879L44.845 52.481C44.714 52.169 44.53 51.747 44.368 51.315 44.206 50.882 44.067 50.435 44.034 50.083A1.4 1.4 0 0 1 44.03 49.843 1 1 0 0 1 44.063 49.66 0.5 0.5 0 0 1 44.112 49.555L44.135 49.521 44.12 49.558A0.4 0.4 0 0 0 44.096 49.668 0.7 0.7 0 0 0 44.103 49.841C44.111 49.906 44.131 49.981 44.155 50.059 44.258 50.373 44.479 50.763 44.723 51.137S45.232 51.876 45.43 52.157A14 14 0 0 1 45.707 52.567C57.066 52.551 61.404 51.589 62.064 51.728 62.732 51.869 69.395 54.256 71.21 56.335 65.114 58.425 62.253 62.28 63.25 64.435 63.519 65.015 64.784 63.036 66.741 62.899 68.764 62.756 72.595 62.637 74.839 62.201 76.52 61.874 78.61 61.154 79.099 60.944S80.704 62.06 82.869 62.549 91.889 63.723 94.14 64.651C95.546 65.23 97.889 66.781 97.916 66.506 98.063 65.019 94.805 57.652 78.533 55.664M32.665 46.307A0.78 0.78 0 0 1 32.034 46.639 0.77 0.77 0 0 1 31.329 46.178L31.268 46.039 31.365 45.926C31.5 45.768 31.708 45.682 31.949 45.682 32.219 45.682 32.566 45.801 32.688 46.064L32.749 46.193z" data-fill-palette-color="accent"></path></g></svg></g><g transform="matrix(1,0,0,1,169.6144678780476,0)"><svg width="199.33759999999998" viewBox="1.95 -32.75 123.19 33.45" height="54.1221" data-palette-color="#ffffff"><path d="M18.3-17.2L18.3-17.2 18.3-17.2Q17.4-14.05 16.38-10.9 15.35-7.75 14.4-5 13.45-2.25 12.65-0.25L12.65-0.25Q12.25 0 11.75 0.15 11.25 0.3 10.4 0.3L10.4 0.3Q9.6 0.3 8.93 0.03 8.25-0.25 8-0.85L8-0.85Q7.5-1.85 6.88-3.75 6.25-5.65 5.58-8.1 4.9-10.55 4.2-13.18 3.5-15.8 2.93-18.25 2.35-20.7 1.95-22.6L1.95-22.6Q2.3-22.95 2.83-23.25 3.35-23.55 4.1-23.55L4.1-23.55Q5.05-23.55 5.53-23.03 6-22.5 6.2-21.35L6.2-21.35Q6.65-19.25 7.23-16.6 7.8-13.95 8.43-11.35 9.05-8.75 9.58-6.68 10.1-4.6 10.35-3.6L10.35-3.6 10.55-3.6Q10.95-4.8 11.8-7.53 12.65-10.25 13.83-13.75 15-17.25 16.2-20.85L16.2-20.85Q16.6-21.1 17.15-21.23 17.7-21.35 18.35-21.35L18.35-21.35Q19.25-21.35 19.85-21.03 20.45-20.7 20.65-20.05L20.65-20.05Q21.85-16.6 22.9-13.28 23.95-9.95 24.75-7.38 25.55-4.8 25.9-3.55L25.9-3.55 26.15-3.55Q27.3-8 28.65-13.1 30-18.2 30.85-23.1L30.85-23.1Q31.55-23.55 32.55-23.55L32.55-23.55Q33.4-23.55 33.9-23.15 34.4-22.75 34.4-21.9L34.4-21.9Q34.4-21.35 34.08-19.8 33.75-18.25 33.2-16.15 32.65-14.05 31.98-11.68 31.3-9.3 30.6-7.08 29.9-4.85 29.28-3.05 28.65-1.25 28.2-0.25L28.2-0.25Q27.95-0.05 27.38 0.13 26.8 0.3 26.05 0.3L26.05 0.3Q24 0.3 23.65-0.65L23.65-0.65Q22.95-2.45 22.05-5.13 21.15-7.8 20.2-10.93 19.25-14.05 18.3-17.2ZM60.25-14.65L60.25-9.95 56.25-9.95 56.25-14.55Q56.25-17.55 54.57-19 52.9-20.45 50.25-20.45L50.25-20.45Q48.3-20.45 46.62-19.7 44.95-18.95 43.8-17.9L43.8-17.9 43.05-21.15Q44.25-22 46.22-22.88 48.2-23.75 50.8-23.75L50.8-23.75Q54.95-23.75 57.6-21.5 60.25-19.25 60.25-14.65L60.25-14.65ZM40.3-1.55L40.3-13.2 44.3-13.2 44.3-0.1Q44.05 0 43.55 0.13 43.05 0.25 42.45 0.25L42.45 0.25Q41.4 0.25 40.85-0.18 40.3-0.6 40.3-1.55L40.3-1.55ZM56.25-1.55L56.25-13.15 60.25-13.1 60.25-0.1Q60 0 59.47 0.13 58.95 0.25 58.4 0.25L58.4 0.25Q57.3 0.25 56.77-0.18 56.25-0.6 56.25-1.55L56.25-1.55ZM44.3-30.95L44.3-11.25 40.3-11.25 40.3-32.4Q40.55-32.5 41.07-32.63 41.6-32.75 42.2-32.75L42.2-32.75Q43.25-32.75 43.77-32.33 44.3-31.9 44.3-30.95L44.3-30.95ZM76-2.6L76-2.6 76-2.6Q78.09-2.6 79.47-3.03 80.84-3.45 81.45-3.85L81.45-3.85 81.45-11.1 75.25-10.45Q72.65-10.25 71.4-9.3 70.15-8.35 70.15-6.55L70.15-6.55Q70.15-4.7 71.62-3.65 73.09-2.6 76-2.6ZM75.95-23.75L75.95-23.75 75.95-23.75Q80.3-23.75 82.84-21.8 85.4-19.85 85.4-15.65L85.4-15.65 85.4-3.8Q85.4-2.7 84.97-2.13 84.55-1.55 83.7-1.05L83.7-1.05Q82.5-0.4 80.5 0.15 78.5 0.7 76 0.7L76 0.7Q71.3 0.7 68.72-1.15 66.15-3 66.15-6.5L66.15-6.5Q66.15-9.75 68.32-11.48 70.5-13.2 74.34-13.55L74.34-13.55 81.45-14.25 81.45-15.65Q81.45-18.15 79.95-19.3 78.45-20.45 75.9-20.45L75.9-20.45Q73.84-20.45 71.97-19.85 70.09-19.25 68.65-18.5L68.65-18.5Q68.25-18.85 67.92-19.33 67.59-19.8 67.59-20.3L67.59-20.3Q67.59-21.6 69.05-22.3L69.05-22.3Q70.4-23 72.17-23.38 73.95-23.75 75.95-23.75ZM93.09-1.55L93.09-13.2 97.09-12.6 97.09-0.1Q96.84 0 96.34 0.13 95.84 0.25 95.24 0.25L95.24 0.25Q94.19 0.25 93.64-0.18 93.09-0.6 93.09-1.55L93.09-1.55ZM97.09-30.95L97.09-10.7 93.09-11.25 93.09-32.4Q93.34-32.5 93.87-32.63 94.39-32.75 94.94-32.75L94.94-32.75Q96.04-32.75 96.57-32.33 97.09-31.9 97.09-30.95L97.09-30.95ZM123.24-11.35L106.44-9 106.24-12.15 121.34-14.2Q121.14-16.95 119.44-18.73 117.74-20.5 114.74-20.5L114.74-20.5Q111.64-20.5 109.62-18.28 107.59-16.05 107.59-11.9L107.59-11.9 107.59-10.8Q107.94-6.8 110.22-4.73 112.49-2.65 116.44-2.65L116.44-2.65Q118.54-2.65 120.24-3.35 121.94-4.05 122.94-4.85L122.94-4.85Q123.49-4.5 123.82-4.03 124.14-3.55 124.14-2.95L124.14-2.95Q124.14-2 123.07-1.18 121.99-0.35 120.22 0.15 118.44 0.65 116.24 0.65L116.24 0.65Q112.39 0.65 109.57-0.75 106.74-2.15 105.22-4.93 103.69-7.7 103.69-11.7L103.69-11.7Q103.69-14.55 104.52-16.78 105.34-19 106.82-20.55 108.29-22.1 110.34-22.93 112.39-23.75 114.79-23.75L114.79-23.75Q117.84-23.75 120.17-22.45 122.49-21.15 123.82-18.82 125.14-16.5 125.14-13.5L125.14-13.5Q125.14-12.4 124.64-11.93 124.14-11.45 123.24-11.35L123.24-11.35Z" opacity="1" transform="matrix(1,0,0,1,0,0)" fill="#ffffff" class="wordmark-text-0" data-fill-palette-color="primary"></path></svg></g></svg></g></svg></g></svg></g></svg></g></svg></g><defs></defs></svg><rect width="368.9520678780476" height="54.1221" fill="none" stroke="none" visibility="hidden"></rect></g></svg></g></svg>